<svg xmlns="http://www.w3.org/2000/svg" xmlns:xlink="http://www.w3.org/1999/xlink" width="13" height="24" viewBox="0 0 13 24"><defs><path id="3knga" d="M1034.376 520.003l-3.085-.005c-3.465 0-5.704 2.293-5.704 5.843v2.694h-3.102a.485.485 0 0 0-.485.484v3.904c0 .267.217.484.485.484h3.101v9.85c0 .267.217.484.485.484h4.047a.484.484 0 0 0 .485-.484v-9.85h3.626a.485.485 0 0 0 .485-.484l.001-3.904a.48.48 0 0 0-.142-.34.482.482 0 0 0-.343-.144h-3.627v-2.284c0-1.097.262-1.655 1.694-1.655h2.078a.484.484 0 0 0 .485-.485v-3.624a.485.485 0 0 0-.484-.484z"/></defs><g><g transform="translate(-1022 -520)"><use fill="#3b5999" xlink:href="#3knga"/></g></g></svg>