<svg xmlns="http://www.w3.org/2000/svg" xmlns:xlink="http://www.w3.org/1999/xlink" width="24" height="13" viewBox="0 0 24 13"><defs><path id="u7mha" d="M992.871 536.74c-.029-.059-.056-.109-.081-.148-.416-.712-1.212-1.586-2.386-2.622l-.025-.024-.013-.012-.012-.012h-.013c-.533-.483-.87-.807-1.012-.974-.259-.315-.316-.636-.175-.961.1-.245.475-.762 1.125-1.554.341-.42.612-.756.811-1.009 1.442-1.82 2.066-2.982 1.875-3.49l-.075-.118c-.05-.07-.179-.135-.387-.196-.208-.058-.475-.068-.8-.029l-3.598.023a.503.503 0 0 0-.25.006l-.162.037-.063.03-.05.035a.54.54 0 0 0-.137.125.778.778 0 0 0-.125.208 18.918 18.918 0 0 1-1.337 2.669c-.308.49-.591.916-.85 1.276-.258.36-.474.625-.65.795-.174.17-.332.306-.474.41-.142.102-.25.146-.325.13l-.212-.047a.803.803 0 0 1-.281-.292 1.246 1.246 0 0 1-.144-.463 4.809 4.809 0 0 1-.044-.48 9.58 9.58 0 0 1 .006-.57c.01-.245.013-.411.013-.498 0-.3.006-.627.019-.979l.03-.837c.01-.205.013-.422.013-.653 0-.228-.014-.409-.043-.539a1.798 1.798 0 0 0-.131-.38.653.653 0 0 0-.256-.285 1.482 1.482 0 0 0-.419-.16c-.441-.095-1.004-.147-1.687-.155-1.549-.015-2.544.08-2.986.286a1.662 1.662 0 0 0-.475.355c-.15.174-.17.27-.062.285.5.071.853.24 1.062.51l.075.143c.058.103.116.285.175.547.058.26.095.549.112.866a8.783 8.783 0 0 1 0 1.483c-.042.41-.081.731-.119.96-.037.23-.093.417-.168.559a2.439 2.439 0 0 1-.15.26.21.21 0 0 1-.063.06.954.954 0 0 1-.337.06c-.117 0-.258-.056-.425-.167a2.996 2.996 0 0 1-.518-.456 6.123 6.123 0 0 1-.606-.813c-.225-.349-.458-.76-.7-1.235l-.2-.343a30.305 30.305 0 0 1-.512-.968 18.092 18.092 0 0 1-.575-1.229.793.793 0 0 0-.3-.38l-.062-.034a1.318 1.318 0 0 0-.487-.178l-3.424.023c-.35 0-.587.074-.712.225l-.05.072a.367.367 0 0 0-.038.19.91.91 0 0 0 .075.32 38.203 38.203 0 0 0 1.63 3.227c.588 1.037 1.098 1.872 1.531 2.504.433.633.875 1.23 1.325 1.793.45.561.747.92.893 1.08.146.158.26.276.344.355l.312.285c.2.19.493.418.88.683.388.264.817.525 1.288.783.47.257 1.018.467 1.643.63a5.97 5.97 0 0 0 1.824.195h1.437c.291-.025.512-.11.662-.261l.05-.06a.771.771 0 0 0 .093-.22c.03-.098.044-.207.044-.325a3.72 3.72 0 0 1 .081-.92c.063-.273.133-.479.213-.617a1.543 1.543 0 0 1 .481-.522.823.823 0 0 1 .1-.042c.2-.063.435-.002.706.185.27.185.525.415.762.688.238.272.523.579.856.919.333.34.625.593.875.76l.25.142c.166.095.383.182.65.26.265.08.499.1.699.06l3.198-.046c.317 0 .563-.05.737-.149.175-.099.28-.209.313-.327a.877.877 0 0 0 .006-.404 1.428 1.428 0 0 0-.088-.313z"/></defs><g><g transform="translate(-969 -525)"><use fill="#4c75a3" xlink:href="#u7mha"/></g></g></svg>