<svg xmlns="http://www.w3.org/2000/svg" xmlns:xlink="http://www.w3.org/1999/xlink" width="20" height="24" viewBox="0 0 20 24"><defs><path id="ugx8a" d="M940.917 537.553H939.6l.006-.765c0-.34.28-.618.62-.618h.085c.341 0 .621.278.621.618zm-4.331-1.14v3.721c0 .274-.274.499-.61.499-.333 0-.607-.225-.607-.499v-3.721c0-.275.274-.5.608-.5.335 0 .609.225.609.5zm7.414-2.58v7.078c0 1.698-1.472 3.086-3.272 3.086h-13.456c-1.8 0-3.272-1.388-3.272-3.086v-7.079c0-1.697 1.472-3.087 3.272-3.087h13.456c1.8 0 3.272 1.39 3.272 3.087zm-15.83 7.846l-.001-7.456h1.668v-1.104l-4.447-.007v1.086l1.388.004v7.477zm3.609-6.345v3.982c0 .576.035.864-.002.965-.113.31-.621.637-.82.033-.033-.105-.003-.424-.004-.972l-.006-4.008h-1.383l.005 3.946c0 .604-.014 1.057.004 1.26.034.363.022.785.358 1.026.626.45 1.825-.068 2.125-.711l-.003.821 1.117.001v-6.343zm5.84 4.56l-.004-3.314c0-1.263-.945-2.02-2.228-.998l.006-2.464-1.39.002-.006 8.504 1.142-.016.104-.53c1.46 1.339 2.378.422 2.376-1.185zm4.352-.44l-1.043.005-.003.142v.582a.57.57 0 0 1-.57.565h-.203a.57.57 0 0 1-.57-.565v-1.53h2.387v-.9c0-.656-.017-1.313-.071-1.689-.171-1.187-1.838-1.376-2.68-.767a1.57 1.57 0 0 0-.584.785c-.118.341-.177.809-.177 1.401v1.976c0 3.285 3.99 2.82 3.514-.004zm-5.482-11.276a15.812 15.812 0 0 1-.027-1.136v-4.446h1.274v5.13a.51.51 0 0 0 1.016 0v-5.13h1.22v6.592h-1.55l.026-.545c-.106.22-.236.387-.39.498a.883.883 0 0 1-.533.166.972.972 0 0 1-.569-.158.953.953 0 0 1-.334-.422 1.93 1.93 0 0 1-.133-.55zm-4.565-3.175c0-.633.053-1.126.158-1.482.106-.355.295-.641.57-.856.274-.216.624-.325 1.05-.325.36 0 .667.071.923.21.258.138.457.317.595.54.14.222.236.452.287.686.052.237.078.596.078 1.08v1.666c0 .612-.025 1.062-.072 1.347a2.136 2.136 0 0 1-.306.802c-.155.246-.354.43-.596.548a1.912 1.912 0 0 1-.841.177c-.354 0-.651-.05-.897-.151a1.23 1.23 0 0 1-.572-.457 2.024 2.024 0 0 1-.29-.74c-.06-.288-.087-.721-.087-1.3v-1.745zm1.215 2.619c0 .373.277.678.616.678.338 0 .615-.305.615-.678v-3.509c0-.374-.277-.678-.615-.678-.339 0-.616.304-.616.678zm-4.293-3.281l-1.838-4.343h1.582l.932 3.226.919-3.217h1.6l-1.729 4.33-.001 5.057h-1.463z"/></defs><g><g transform="translate(-924 -520)"><use fill="#cd201f" xlink:href="#ugx8a"/></g></g></svg>