<svg id="Слой_1" data-name="Слой 1" xmlns="http://www.w3.org/2000/svg" viewBox="0 0 216.61 50.46"><defs><style>.cls-1{fill:#2d2d2d;}</style></defs><title>Gabbiano Wedding Hause</title><path class="cls-1" d="M406.08,296.52v-.78h-8.22v.78h2.93v.72a6.59,6.59,0,0,1-1.09,4.25,4.47,4.47,0,0,1-3.58,1.28,4.33,4.33,0,0,1-4.11-2.23q-1.25-2.24-1.25-7.42t1.41-7.8a4.76,4.76,0,0,1,4.45-2.47,5.57,5.57,0,0,1,3.76,1.33,6.85,6.85,0,0,1,2.11,3.72h.65v-5.23h-.44l-1.13,1.11a8,8,0,0,0-2.37-1.27,8.57,8.57,0,0,0-2.75-.44,8.26,8.26,0,0,0-3.55.79,9,9,0,0,0-3,2.35,11.3,11.3,0,0,0-2,3.56,12.59,12.59,0,0,0-.7,4.25,11.37,11.37,0,0,0,2.46,7.66,8.17,8.17,0,0,0,6.54,2.87,8.74,8.74,0,0,0,5.92-1.82,6.58,6.58,0,0,0,2.07-5.21Z" transform="translate(-316.53 -272.76)"/><path class="cls-1" d="M416.42,281.92h-.78l-7,20.34h-2.45V303h6.06v-.78h-2.6l2.19-6.61h5.95l2.07,6.61h-2.54V303h7.84v-.78H423Zm-4.32,12.81,2.79-8.26,2.6,8.26Z" transform="translate(-316.53 -272.76)"/><path class="cls-1" d="M436.93,292.19v-.12a6.91,6.91,0,0,0,3.72-1.66,4.23,4.23,0,0,0,1.32-3.19,4,4,0,0,0-1.89-3.56,10.07,10.07,0,0,0-5.45-1.22h-7.9v.78H429v19h-2.25V303h7.78a10.56,10.56,0,0,0,6-1.46,4.78,4.78,0,0,0,2.12-4.18,4.39,4.39,0,0,0-1.54-3.36A8.16,8.16,0,0,0,436.93,292.19Zm-4.87-9h2.21c1.76,0,3,.29,3.59.88a4.35,4.35,0,0,1,.94,3.2c0,1.75-.32,2.94-.94,3.57s-1.79.95-3.47.95h-2.33Zm6.24,18q-.94,1-3.51,1h-2.73V292.6h2.45a4.9,4.9,0,0,1,3.66,1.13,5.51,5.51,0,0,1,1.07,3.83C439.24,299.37,438.93,300.61,438.3,301.27Z" transform="translate(-316.53 -272.76)"/><path class="cls-1" d="M461.62,297.4a4.37,4.37,0,0,0-1.55-3.36,8.12,8.12,0,0,0-4.17-1.85v-.12a6.91,6.91,0,0,0,3.72-1.66,4.26,4.26,0,0,0,1.31-3.19,4,4,0,0,0-1.88-3.56,10.09,10.09,0,0,0-5.45-1.22h-7.9v.78H448v19H445.7V303h7.78a10.56,10.56,0,0,0,6-1.46A4.8,4.8,0,0,0,461.62,297.4ZM451,283.22h2.2c1.77,0,3,.29,3.59.88a4.31,4.31,0,0,1,.94,3.2c0,1.75-.31,2.94-.94,3.57s-1.78.95-3.47.95H451Zm6.24,18c-.63.66-1.8,1-3.52,1H451V292.6h2.45a4.93,4.93,0,0,1,3.66,1.13,5.51,5.51,0,0,1,1.07,3.83C458.21,299.37,457.89,300.61,457.27,301.27Z" transform="translate(-316.53 -272.76)"/><polygon class="cls-1" points="147.75 10.46 150.35 10.46 150.35 29.5 147.75 29.5 147.75 30.28 156.15 30.28 156.15 29.5 153.49 29.5 153.49 10.46 156.15 10.46 156.15 9.68 147.75 9.68 147.75 10.46"/><path class="cls-1" d="M485.07,303h7.84v-.78h-2.16l-6.55-20.34h-.78l-7,20.34h-2.45V303H480v-.78H477.4l2.19-6.61h6l2.06,6.61h-2.54Zm-5.19-8.31,2.79-8.26,2.6,8.26Z" transform="translate(-316.53 -272.76)"/><polygon class="cls-1" points="190.4 10.46 192.73 10.46 192.73 24.41 183.94 9.68 177.95 9.68 177.95 10.46 180.23 10.46 180.23 29.5 177.92 29.5 177.92 30.28 183.54 30.28 183.54 29.5 181.22 29.5 181.22 10.83 192.91 30.79 193.72 30.79 193.72 10.46 196.11 10.46 196.11 9.68 190.4 9.68 190.4 10.46"/><path class="cls-1" d="M532.44,288.59a11.08,11.08,0,0,0-2-3.55,8.57,8.57,0,0,0-2.81-2.23,7.91,7.91,0,0,0-6.87.09,9.56,9.56,0,0,0-3,2.53,10.32,10.32,0,0,0-1.81,3.3,12.56,12.56,0,0,0-.6,3.94,13.67,13.67,0,0,0,.62,4.17,11.23,11.23,0,0,0,1.79,3.48,8.57,8.57,0,0,0,2.87,2.45,8,8,0,0,0,10-2.27,10.86,10.86,0,0,0,1.9-3.5,12.94,12.94,0,0,0,.67-4.18A12.77,12.77,0,0,0,532.44,288.59Zm-4.17,12a4.86,4.86,0,0,1-8.08,0q-1.34-2.16-1.33-6.52,0-6.39,1.2-8.82a4.82,4.82,0,0,1,8.34,0q1.19,2.37,1.19,8.81Q529.59,298.45,528.27,300.61Z" transform="translate(-316.53 -272.76)"/><polygon class="cls-1" points="77.8 41.44 77.17 39.86 78.02 37.61 77.12 37.61 76.57 39.24 76.01 37.61 75.13 37.61 75.95 39.86 75.34 41.44 73.94 37.6 72.91 37.6 74.9 42.54 75.71 42.54 76.57 40.46 77.42 42.54 78.23 42.54 80.24 37.6 79.2 37.6 77.8 41.44"/><polygon class="cls-1" points="88.53 40.41 90.61 40.41 90.61 39.63 88.53 39.63 88.53 38.44 90.94 38.44 90.94 37.6 87.57 37.6 87.57 42.54 91 42.54 91 41.7 88.53 41.7 88.53 40.41"/><path class="cls-1" d="M418.73,311.08a2.25,2.25,0,0,0-.77-.53,2.64,2.64,0,0,0-1.06-.19h-1.79v4.94h1.79a2.71,2.71,0,0,0,1-.18,2.14,2.14,0,0,0,1.26-1.28,3,3,0,0,0,.17-1,3,3,0,0,0-.15-1A2.55,2.55,0,0,0,418.73,311.08Zm-.46,2.39a1.53,1.53,0,0,1-.28.52,1.23,1.23,0,0,1-.46.34,1.39,1.39,0,0,1-.63.13h-.83V311.2h.83a1.61,1.61,0,0,1,.63.12,1.39,1.39,0,0,1,.46.33,1.53,1.53,0,0,1,.28.52,2.16,2.16,0,0,1,0,1.3Z" transform="translate(-316.53 -272.76)"/><path class="cls-1" d="M430.53,311.08a2.31,2.31,0,0,0-.76-.53,2.71,2.71,0,0,0-1.06-.19h-1.8v4.94h1.8a2.66,2.66,0,0,0,1-.18,2.14,2.14,0,0,0,.77-.5,2.08,2.08,0,0,0,.49-.78,3,3,0,0,0,.17-1,3,3,0,0,0-.15-1A2.37,2.37,0,0,0,430.53,311.08Zm-.45,2.39a1.55,1.55,0,0,1-.29.52,1.28,1.28,0,0,1-.45.34,1.45,1.45,0,0,1-.63.13h-.84V311.2h.84a1.56,1.56,0,0,1,.62.12,1.29,1.29,0,0,1,.46.33,1.55,1.55,0,0,1,.29.52,2.39,2.39,0,0,1,0,1.3Z" transform="translate(-316.53 -272.76)"/><rect class="cls-1" x="122.18" y="37.6" width="0.96" height="4.94"/><polygon class="cls-1" points="134.31 40.84 131.74 37.6 130.99 37.6 130.99 42.54 131.95 42.54 131.95 39.37 134.49 42.54 135.27 42.54 135.27 37.6 134.31 37.6 134.31 40.84"/><path class="cls-1" d="M462.09,313.46h1v.35a1.71,1.71,0,0,1-1.3.68,1.41,1.41,0,0,1-.58-.13,1.6,1.6,0,0,1-.46-.35,1.65,1.65,0,0,1-.31-.53,2,2,0,0,1-.11-.65,1.89,1.89,0,0,1,.1-.63,1.6,1.6,0,0,1,.29-.53,1.17,1.17,0,0,1,.44-.36,1.27,1.27,0,0,1,.58-.14,1.46,1.46,0,0,1,.73.2,1.34,1.34,0,0,1,.52.56l.72-.53a1.82,1.82,0,0,0-.75-.78,2.26,2.26,0,0,0-1.19-.3,2.38,2.38,0,0,0-1.72.74,2.54,2.54,0,0,0-.5.78,2.38,2.38,0,0,0-.19,1,2.54,2.54,0,0,0,.19,1,2.41,2.41,0,0,0,.5.8,2.31,2.31,0,0,0,.74.54,2.2,2.2,0,0,0,.92.19,1.89,1.89,0,0,0,1.38-.59v.56h.79v-2.54h-1.79Z" transform="translate(-316.53 -272.76)"/><polygon class="cls-1" points="166.68 39.59 164.44 39.59 164.44 37.6 163.48 37.6 163.48 42.54 164.44 42.54 164.44 40.43 166.68 40.43 166.68 42.54 167.63 42.54 167.63 37.6 166.68 37.6 166.68 39.59"/><path class="cls-1" d="M495.88,311.12a2.44,2.44,0,0,0-.76-.58,2.23,2.23,0,0,0-1-.22,2.25,2.25,0,0,0-1,.21,2.51,2.51,0,0,0-.77.55,2.48,2.48,0,0,0-.51.8,2.55,2.55,0,0,0-.18.95,2.51,2.51,0,0,0,.17.93,2.73,2.73,0,0,0,.49.8,2.5,2.5,0,0,0,.76.56,2.42,2.42,0,0,0,1.95,0,2.51,2.51,0,0,0,.77-.55,2.59,2.59,0,0,0,.5-.79,2.55,2.55,0,0,0,.18-1,2.72,2.72,0,0,0-.17-.92A2.61,2.61,0,0,0,495.88,311.12Zm-.4,2.31a1.58,1.58,0,0,1-.28.53,1.33,1.33,0,0,1-1.07.53,1.34,1.34,0,0,1-.61-.14,1.49,1.49,0,0,1-.45-.37,1.68,1.68,0,0,1-.28-.53,1.87,1.87,0,0,1-.1-.62,2,2,0,0,1,.09-.6,1.78,1.78,0,0,1,.28-.53,1.29,1.29,0,0,1,1.07-.52,1.3,1.3,0,0,1,.6.14,1.47,1.47,0,0,1,.46.36,1.78,1.78,0,0,1,.28.53,1.87,1.87,0,0,1,.1.62A2.08,2.08,0,0,1,495.48,313.43Z" transform="translate(-316.53 -272.76)"/><path class="cls-1" d="M507.4,312.88a2.88,2.88,0,0,1-.06.59,1.47,1.47,0,0,1-.2.51,1.22,1.22,0,0,1-.38.37,1.15,1.15,0,0,1-.57.14,1.09,1.09,0,0,1-.57-.14,1.06,1.06,0,0,1-.37-.36,1.43,1.43,0,0,1-.2-.51,2.91,2.91,0,0,1-.06-.6v-2.52h-1v2.52a3.93,3.93,0,0,0,.11.92,2.15,2.15,0,0,0,.38.79,1.9,1.9,0,0,0,.67.54,2.18,2.18,0,0,0,1,.2,2.26,2.26,0,0,0,1-.19,1.89,1.89,0,0,0,.68-.53,2.18,2.18,0,0,0,.38-.78,3.64,3.64,0,0,0,.12-.95v-2.52h-1Z" transform="translate(-316.53 -272.76)"/><path class="cls-1" d="M519.25,312.91a1.82,1.82,0,0,0-.5-.28c-.2-.07-.42-.14-.66-.2l-.49-.14a1.27,1.27,0,0,1-.35-.14A.74.74,0,0,1,517,312a.42.42,0,0,1-.07-.26.49.49,0,0,1,.19-.41,1,1,0,0,1,.59-.14,1.61,1.61,0,0,1,.44.05,2.35,2.35,0,0,1,.4.14,1.49,1.49,0,0,1,.31.16l.18.13.43-.78a3.68,3.68,0,0,0-.77-.38,2.69,2.69,0,0,0-1-.17,2.63,2.63,0,0,0-.7.1,1.88,1.88,0,0,0-.58.3,1.32,1.32,0,0,0-.38.49,1.62,1.62,0,0,0-.06,1.16,1.14,1.14,0,0,0,.27.36,1.76,1.76,0,0,0,.43.27,3.44,3.44,0,0,0,.62.21l.53.16a1.86,1.86,0,0,1,.4.15.76.76,0,0,1,.26.19.44.44,0,0,1,.09.27c0,.34-.27.51-.8.51a2,2,0,0,1-.55-.07,2.45,2.45,0,0,1-.5-.17,2.24,2.24,0,0,1-.38-.2,1.64,1.64,0,0,1-.23-.16l-.42.83a3.36,3.36,0,0,0,1,.47,3.77,3.77,0,0,0,1.1.17,3.1,3.1,0,0,0,.69-.08,1.86,1.86,0,0,0,.59-.26,1.24,1.24,0,0,0,.4-.45,1.45,1.45,0,0,0,.15-.68,1.43,1.43,0,0,0-.11-.58A1.23,1.23,0,0,0,519.25,312.91Z" transform="translate(-316.53 -272.76)"/><polygon class="cls-1" points="211.65 40.41 213.73 40.41 213.73 39.63 211.65 39.63 211.65 38.44 214.06 38.44 214.06 37.6 210.69 37.6 210.69 42.54 214.12 42.54 214.12 41.7 211.65 41.7 211.65 40.41"/><path class="cls-1" d="M345.86,300.83A33.52,33.52,0,0,0,367,290.21V272.76H316.53v1.05C333.14,279.17,344.27,295,345.86,300.83Z" transform="translate(-316.53 -272.76)"/><path class="cls-1" d="M336.52,309.88c.19-10.19-10.3-23.83-20-31.86v45.2H367v-27.9C360.41,303.56,348.66,309.32,336.52,309.88Z" transform="translate(-316.53 -272.76)"/></svg>